<?xml version="1.0" encoding="UTF-8" standalone="no"?>
<!-- Created with Inkscape (http://www.inkscape.org/) -->

<svg
   xmlns:dc="http://purl.org/dc/elements/1.1/"
   xmlns:cc="http://creativecommons.org/ns#"
   xmlns:rdf="http://www.w3.org/1999/02/22-rdf-syntax-ns#"
   xmlns:svg="http://www.w3.org/2000/svg"
   xmlns="http://www.w3.org/2000/svg"
   xmlns:xlink="http://www.w3.org/1999/xlink"
   xmlns:sodipodi="http://sodipodi.sourceforge.net/DTD/sodipodi-0.dtd"
   xmlns:inkscape="http://www.inkscape.org/namespaces/inkscape"
   width="210mm"
   height="297mm"
   viewBox="0 0 210 297"
   version="1.1"
   id="svg4957"
   sodipodi:docname="Grass,sky.svg"
   inkscape:version="0.92.1 r15371">
  <defs
     id="defs4951">
    <linearGradient
       inkscape:collect="always"
       id="linearGradient5732">
      <stop
         style="stop-color:#ffff00;stop-opacity:1"
         offset="0"
         id="stop5728" />
      <stop
         style="stop-color:#008000;stop-opacity:1"
         offset="1"
         id="stop5730" />
    </linearGradient>
    <linearGradient
       inkscape:collect="always"
       id="linearGradient5722">
      <stop
         style="stop-color:#d45500;stop-opacity:1"
         offset="0"
         id="stop5718" />
      <stop
         id="stop5726"
         offset="0.33783782"
         style="stop-color:#8e3f0b;stop-opacity:1;" />
      <stop
         style="stop-color:#502d16;stop-opacity:1"
         offset="1"
         id="stop5720" />
    </linearGradient>
    <linearGradient
       id="linearGradient5627"
       inkscape:collect="always">
      <stop
         id="stop5623"
         offset="0"
         style="stop-color:#ffffff;stop-opacity:1" />
      <stop
         style="stop-color:#ffffff;stop-opacity:1"
         offset="0.10044964"
         id="stop5629" />
      <stop
         id="stop5625"
         offset="1"
         style="stop-color:#999999;stop-opacity:1" />
    </linearGradient>
    <linearGradient
       inkscape:collect="always"
       id="linearGradient4965">
      <stop
         style="stop-color:#00ffff;stop-opacity:1;"
         offset="0"
         id="stop4961" />
      <stop
         style="stop-color:#ffffff;stop-opacity:1"
         offset="1"
         id="stop4963" />
    </linearGradient>
    <linearGradient
       inkscape:collect="always"
       xlink:href="#linearGradient4965"
       id="linearGradient4967"
       x1="-353.78571"
       y1="-404.5238"
       x2="-353.78571"
       y2="251.64285"
       gradientUnits="userSpaceOnUse"
       gradientTransform="translate(-1979.8989,694.92264)" />
    <radialGradient
       inkscape:collect="always"
       xlink:href="#linearGradient5627"
       id="radialGradient5004"
       cx="-484.7298"
       cy="-243.94768"
       fx="-484.7298"
       fy="-243.94768"
       r="95.25"
       gradientTransform="matrix(1.3185466,1.5488025,-1.5113122,1.2866301,-1061.947,1263.1813)"
       gradientUnits="userSpaceOnUse" />
    <filter
       inkscape:collect="always"
       style="color-interpolation-filters:sRGB"
       id="filter5615"
       x="-0.098839529"
       width="1.1976791"
       y="-0.13135276"
       height="1.2627055">
      <feGaussianBlur
         inkscape:collect="always"
         stdDeviation="7.8453876"
         id="feGaussianBlur5617" />
    </filter>
    <radialGradient
       inkscape:collect="always"
       xlink:href="#linearGradient5627-1"
       id="radialGradient5004-8"
       cx="-484.7298"
       cy="-243.94768"
       fx="-484.7298"
       fy="-243.94768"
       r="95.25"
       gradientTransform="matrix(1.3185466,1.5488025,-1.5113122,1.2866301,-1984.0027,1506.5236)"
       gradientUnits="userSpaceOnUse" />
    <linearGradient
       id="linearGradient5627-1"
       inkscape:collect="always">
      <stop
         id="stop5623-9"
         offset="0"
         style="stop-color:#ffffff;stop-opacity:1" />
      <stop
         style="stop-color:#ffffff;stop-opacity:1"
         offset="0.10044964"
         id="stop5629-1" />
      <stop
         id="stop5625-0"
         offset="1"
         style="stop-color:#999999;stop-opacity:1" />
    </linearGradient>
    <filter
       inkscape:collect="always"
       style="color-interpolation-filters:sRGB"
       id="filter5615-6"
       x="-0.098839529"
       width="1.197679"
       y="-0.13135277"
       height="1.2627054">
      <feGaussianBlur
         inkscape:collect="always"
         stdDeviation="7.8453876"
         id="feGaussianBlur5617-6" />
    </filter>
    <radialGradient
       inkscape:collect="always"
       xlink:href="#linearGradient5627-1"
       id="radialGradient5004-6"
       cx="-484.7298"
       cy="-243.94768"
       fx="-484.7298"
       fy="-243.94768"
       r="95.25"
       gradientTransform="matrix(1.3185466,1.5488025,-1.5113122,1.2866301,-124.53785,1150.9667)"
       gradientUnits="userSpaceOnUse" />
    <filter
       inkscape:collect="always"
       style="color-interpolation-filters:sRGB"
       id="filter5615-3"
       x="-0.098839529"
       width="1.197679"
       y="-0.13135277"
       height="1.2627054">
      <feGaussianBlur
         inkscape:collect="always"
         stdDeviation="7.8453876"
         id="feGaussianBlur5617-5" />
    </filter>
    <radialGradient
       inkscape:collect="always"
       xlink:href="#linearGradient5627-1"
       id="radialGradient5004-3"
       cx="-484.7298"
       cy="-243.94768"
       fx="-484.7298"
       fy="-243.94768"
       r="95.25"
       gradientTransform="matrix(1.3185466,1.5488025,-1.5113122,1.2866301,14.442302,725.47361)"
       gradientUnits="userSpaceOnUse" />
    <filter
       inkscape:collect="always"
       style="color-interpolation-filters:sRGB"
       id="filter5615-8"
       x="-0.098839529"
       width="1.197679"
       y="-0.13135277"
       height="1.2627054">
      <feGaussianBlur
         inkscape:collect="always"
         stdDeviation="7.8453876"
         id="feGaussianBlur5617-1" />
    </filter>
    <linearGradient
       inkscape:collect="always"
       xlink:href="#linearGradient5722"
       id="linearGradient5724"
       x1="-2667"
       y1="-319.85715"
       x2="-2667"
       y2="-96.095238"
       gradientUnits="userSpaceOnUse"
       gradientTransform="matrix(1,0,0,0.89865616,0,-38.669707)" />
    <linearGradient
       inkscape:collect="always"
       xlink:href="#linearGradient5732"
       id="linearGradient5734"
       x1="-2691.1904"
       y1="-457.44049"
       x2="-2691.1904"
       y2="-381.84525"
       gradientUnits="userSpaceOnUse"
       gradientTransform="matrix(1,0,0,1.2271972,0,104.83436)" />
    <radialGradient
       inkscape:collect="always"
       xlink:href="#linearGradient5627"
       id="radialGradient5784"
       gradientUnits="userSpaceOnUse"
       gradientTransform="matrix(1.3185466,1.5488025,-1.5113122,1.2866301,-2183.7803,1505.0861)"
       cx="-484.7298"
       cy="-243.94768"
       fx="-484.7298"
       fy="-243.94768"
       r="95.25" />
  </defs>
  <sodipodi:namedview
     id="base"
     pagecolor="#ffffff"
     bordercolor="#666666"
     borderopacity="1.0"
     inkscape:pageopacity="0.0"
     inkscape:pageshadow="2"
     inkscape:zoom="0.0875"
     inkscape:cx="-5286.1528"
     inkscape:cy="-366.84276"
     inkscape:document-units="mm"
     inkscape:current-layer="layer1"
     showgrid="false"
     inkscape:window-width="1920"
     inkscape:window-height="1017"
     inkscape:window-x="1912"
     inkscape:window-y="-8"
     inkscape:window-maximized="1" />
  <metadata
     id="metadata4954">
    <rdf:RDF>
      <cc:Work
         rdf:about="">
        <dc:format>image/svg+xml</dc:format>
        <dc:type
           rdf:resource="http://purl.org/dc/dcmitype/StillImage" />
      </cc:Work>
    </rdf:RDF>
  </metadata>
  <g
     inkscape:label="Layer 1"
     inkscape:groupmode="layer"
     id="layer1">
    <path
       style="fill:url(#linearGradient4967);fill-opacity:1;stroke:none;stroke-width:0.52335685"
       d="m -2553.6669,257.69049 h 480.0001 v 800.00001 h -480.0001 z"
       id="rect4959"
       inkscape:connector-curvature="0"
       inkscape:export-xdpi="96"
       inkscape:export-ydpi="96" />
    <path
       style="fill:url(#radialGradient5784);fill-opacity:1;fill-rule:nonzero;stroke:none;stroke-width:0.16503711;stroke-opacity:1;filter:url(#filter5615)"
       d="m -2401.4734,381.66685 a 35.836632,36.779705 0 0 0 -35.3777,31.20584 35.836632,36.779705 0 0 0 -24.9789,-10.45828 35.836632,36.779705 0 0 0 -35.8365,36.77967 35.836632,36.779705 0 0 0 32.337,36.59984 35.836632,36.779705 0 0 0 -2.159,12.43954 35.836632,36.779705 0 0 0 35.8366,36.77967 35.836632,36.779705 0 0 0 25.8309,-11.34608 35.836632,36.779705 0 0 0 0.5752,0.0295 35.836632,36.779705 0 0 0 13.1139,-2.5585 35.836632,36.779705 0 0 0 17.0641,4.44469 35.836632,36.779705 0 0 0 35.8366,-36.77967 35.836632,36.779705 0 0 0 -4.6132,-17.96169 35.836632,36.779705 0 0 0 0.8413,0.0429 35.836632,36.779705 0 0 0 35.8366,-36.77967 35.836632,36.779705 0 0 0 -35.8366,-36.77965 35.836632,36.779705 0 0 0 -27.3348,13.00333 35.836632,36.779705 0 0 0 -31.1355,-18.66139 z"
       id="path4969"
       inkscape:connector-curvature="0"
       inkscape:export-xdpi="96"
       inkscape:export-ydpi="96" />
    <path
       style="fill:url(#radialGradient5004-8);fill-opacity:1;fill-rule:nonzero;stroke:none;stroke-width:0.16503711;stroke-opacity:1;filter:url(#filter5615-6)"
       d="m -2201.6958,383.10443 a 35.836632,36.779705 0 0 0 -35.3777,31.20584 35.836632,36.779705 0 0 0 -24.9788,-10.45828 35.836632,36.779705 0 0 0 -35.8366,36.77967 35.836632,36.779705 0 0 0 32.337,36.59983 35.836632,36.779705 0 0 0 -2.159,12.43954 35.836632,36.779705 0 0 0 35.8366,36.77967 35.836632,36.779705 0 0 0 25.831,-11.34608 35.836632,36.779705 0 0 0 0.5751,0.0295 35.836632,36.779705 0 0 0 13.1139,-2.5585 35.836632,36.779705 0 0 0 17.0641,4.44469 35.836632,36.779705 0 0 0 35.8366,-36.77967 35.836632,36.779705 0 0 0 -4.6132,-17.96169 35.836632,36.779705 0 0 0 0.8413,0.0429 35.836632,36.779705 0 0 0 35.8366,-36.77966 35.836632,36.779705 0 0 0 -35.8366,-36.77965 35.836632,36.779705 0 0 0 -27.3348,13.00333 35.836632,36.779705 0 0 0 -31.1355,-18.66139 z"
       id="path4969-0"
       inkscape:connector-curvature="0"
       inkscape:export-xdpi="96"
       inkscape:export-ydpi="96" />
    <path
       style="opacity:1;fill:url(#radialGradient5004-6);fill-opacity:1;stroke:none;stroke-width:0.16503711;stroke-opacity:1;filter:url(#filter5615-3)"
       d="m -342.23096,27.547416 a 35.836632,36.779705 0 0 0 -35.37768,31.205839 35.836632,36.779705 0 0 0 -24.97884,-10.45828 35.836632,36.779705 0 0 0 -35.8366,36.779671 35.836632,36.779705 0 0 0 32.33707,36.599834 35.836632,36.779705 0 0 0 -2.15906,12.43954 35.836632,36.779705 0 0 0 35.8366,36.77967 35.836632,36.779705 0 0 0 25.83098,-11.34608 35.836632,36.779705 0 0 0 0.57515,0.0295 35.836632,36.779705 0 0 0 13.11391,-2.5585 35.836632,36.779705 0 0 0 17.06409,4.44469 35.836632,36.779705 0 0 0 35.83657,-36.77967 35.836632,36.779705 0 0 0 -4.61317,-17.96168 35.836632,36.779705 0 0 0 0.8413,0.0429 35.836632,36.779705 0 0 0 35.83657,-36.779674 35.836632,36.779705 0 0 0 -35.83657,-36.779651 35.836632,36.779705 0 0 0 -27.33477,13.00333 35.836632,36.779705 0 0 0 -31.13555,-18.661389 z"
       id="path4969-4"
       inkscape:connector-curvature="0"
       transform="matrix(1.3452851,0,0,1.3452851,-1921.5178,675.13071)"
       inkscape:export-xdpi="96"
       inkscape:export-ydpi="96" />
    <path
       style="fill:url(#radialGradient5004-3);fill-opacity:1;stroke:none;stroke-width:0.16503711;stroke-opacity:1;filter:url(#filter5615-8)"
       d="m -203.25081,-397.94567 a 35.836632,36.779705 0 0 0 -35.37768,31.20584 35.836632,36.779705 0 0 0 -24.97884,-10.45828 35.836632,36.779705 0 0 0 -35.83659,36.77967 35.836632,36.779705 0 0 0 32.33706,36.59984 35.836632,36.779705 0 0 0 -2.15906,12.43954 35.836632,36.779705 0 0 0 35.8366,36.77967 35.836632,36.779705 0 0 0 25.83098,-11.34608 35.836632,36.779705 0 0 0 0.57515,0.0295 35.836632,36.779705 0 0 0 13.11391,-2.5585 35.836632,36.779705 0 0 0 17.06409,4.44469 35.836632,36.779705 0 0 0 35.83657,-36.77967 35.836632,36.779705 0 0 0 -4.61317,-17.96169 35.836632,36.779705 0 0 0 0.8413,0.0429 35.836632,36.779705 0 0 0 35.83657,-36.77967 35.836632,36.779705 0 0 0 -35.83657,-36.77965 35.836632,36.779705 0 0 0 -27.33477,13.00333 35.836632,36.779705 0 0 0 -31.13555,-18.66139 z"
       id="path4969-8"
       inkscape:connector-curvature="0"
       transform="matrix(1.0224227,0,0,0.76876832,-1998.2351,887.55645)"
       inkscape:export-xdpi="96"
       inkscape:export-ydpi="96" />
    <rect
       style="fill:url(#linearGradient5724);fill-opacity:1;stroke:none;stroke-width:0.12969035;stroke-opacity:1"
       id="rect5699"
       width="960"
       height="321.75989"
       x="-3141.7383"
       y="-381.5694" />
    <rect
       y="-461.4245"
       x="-3141.7383"
       height="97.997963"
       width="960"
       id="rect5716"
       style="fill:url(#linearGradient5734);fill-opacity:1;stroke:none;stroke-width:0.07157318;stroke-opacity:1" />
  </g>
</svg>
